<svg width="23" height="24" viewBox="0 0 23 24" fill="none" xmlns="http://www.w3.org/2000/svg">
<path d="M12.3766 2C13.4453 2.003 13.9878 2.009 14.4561 2.023L14.6404 2.03C14.8532 2.038 15.0632 2.048 15.3168 2.06C16.3276 2.11 17.0173 2.278 17.6225 2.525C18.2495 2.779 18.7777 3.123 19.3059 3.678C19.7889 4.1779 20.1627 4.78259 20.4012 5.45C20.6359 6.087 20.7955 6.813 20.843 7.878C20.8544 8.144 20.8639 8.365 20.8715 8.59L20.8772 8.784C20.8914 9.276 20.8971 9.847 20.899 10.972L20.9 11.718V13.028C20.9023 13.7574 20.895 14.4868 20.8781 15.216L20.8724 15.41C20.8648 15.635 20.8553 15.856 20.8439 16.122C20.7964 17.187 20.6349 17.912 20.4012 18.55C20.1634 19.2178 19.7895 19.8226 19.3059 20.322C18.8308 20.8303 18.2564 21.2238 17.6225 21.475C17.0173 21.722 16.3276 21.89 15.3168 21.94C15.0914 21.9512 14.8659 21.9612 14.6404 21.97L14.4561 21.976C13.9878 21.99 13.4453 21.997 12.3766 21.999L11.6679 22H10.4243C9.73106 22.0025 9.03781 21.9949 8.34476 21.977L8.16046 21.971C7.93494 21.962 7.70947 21.9517 7.48406 21.94C6.47326 21.89 5.78356 21.722 5.17746 21.475C4.5435 21.2244 3.96927 20.8308 3.49501 20.322C3.01151 19.8223 2.63738 19.2176 2.39871 18.55C2.16406 17.913 2.00446 17.187 1.95696 16.122C1.94638 15.8847 1.93688 15.6474 1.92846 15.41L1.92371 15.216C1.90621 14.4868 1.89829 13.7574 1.89996 13.028V10.972C1.89731 10.2426 1.90428 9.5132 1.92086 8.784L1.92751 8.59C1.93511 8.365 1.94461 8.144 1.95601 7.878C2.00351 6.813 2.16311 6.088 2.39776 5.45C2.63632 4.7819 3.0112 4.17702 3.49596 3.678C3.9701 3.16947 4.54395 2.77599 5.17746 2.525C5.78356 2.278 6.47231 2.11 7.48406 2.06C7.73676 2.048 7.94766 2.038 8.16046 2.03L8.34476 2.024C9.03749 2.00623 9.73043 1.99857 10.4234 2.001L12.3766 2ZM11.4 7C10.1402 7 8.932 7.52678 8.0412 8.46447C7.15041 9.40215 6.64996 10.6739 6.64996 12C6.64996 13.3261 7.15041 14.5979 8.0412 15.5355C8.932 16.4732 10.1402 17 11.4 17C12.6597 17 13.8679 16.4732 14.7587 15.5355C15.6495 14.5979 16.15 13.3261 16.15 12C16.15 10.6739 15.6495 9.40215 14.7587 8.46447C13.8679 7.52678 12.6597 7 11.4 7ZM11.4 9C11.7742 8.99993 12.1448 9.07747 12.4906 9.22817C12.8364 9.37887 13.1507 9.5998 13.4154 9.87833C13.68 10.1569 13.89 10.4875 14.0333 10.8515C14.1766 11.2154 14.2504 11.6055 14.2504 11.9995C14.2505 12.3935 14.1768 12.7836 14.0337 13.1476C13.8905 13.5116 13.6806 13.8423 13.416 14.121C13.1514 14.3996 12.8373 14.6206 12.4915 14.7714C12.1458 14.9223 11.7752 14.9999 11.4009 15C10.645 15 9.92014 14.6839 9.38566 14.1213C8.85118 13.5587 8.55091 12.7956 8.55091 12C8.55091 11.2044 8.85118 10.4413 9.38566 9.87868C9.92014 9.31607 10.645 9 11.4009 9M16.3884 5.5C16.0735 5.5 15.7714 5.6317 15.5487 5.86612C15.326 6.10054 15.2009 6.41848 15.2009 6.75C15.2009 7.08152 15.326 7.39946 15.5487 7.63388C15.7714 7.8683 16.0735 8 16.3884 8C16.7034 8 17.0054 7.8683 17.2281 7.63388C17.4508 7.39946 17.5759 7.08152 17.5759 6.75C17.5759 6.41848 17.4508 6.10054 17.2281 5.86612C17.0054 5.6317 16.7034 5.5 16.3884 5.5Z" fill="#FDFDFD"/>
</svg>
