<svg width="25" height="24" viewBox="0 0 25 24" fill="none" xmlns="http://www.w3.org/2000/svg">
<path d="M19.7998 3C20.3302 3 20.8389 3.21071 21.214 3.58579C21.5891 3.96086 21.7998 4.46957 21.7998 5V19C21.7998 19.5304 21.5891 20.0391 21.214 20.4142C20.8389 20.7893 20.3302 21 19.7998 21H5.7998C5.26937 21 4.76066 20.7893 4.38559 20.4142C4.01052 20.0391 3.7998 19.5304 3.7998 19V5C3.7998 4.46957 4.01052 3.96086 4.38559 3.58579C4.76066 3.21071 5.26937 3 5.7998 3H19.7998ZM19.2998 18.5V13.2C19.2998 12.3354 18.9563 11.5062 18.345 10.8948C17.7336 10.2835 16.9044 9.94 16.0398 9.94C15.1898 9.94 14.1998 10.46 13.7198 11.24V10.13H10.9298V18.5H13.7198V13.57C13.7198 12.8 14.3398 12.17 15.1098 12.17C15.4811 12.17 15.8372 12.3175 16.0998 12.5801C16.3623 12.8426 16.5098 13.1987 16.5098 13.57V18.5H19.2998ZM7.6798 8.56C8.12537 8.56 8.55268 8.383 8.86774 8.06794C9.18281 7.75288 9.35981 7.32556 9.35981 6.88C9.35981 5.95 8.6098 5.19 7.6798 5.19C7.23159 5.19 6.80173 5.36805 6.48479 5.68499C6.16786 6.00193 5.9898 6.43178 5.9898 6.88C5.9898 7.81 6.7498 8.56 7.6798 8.56ZM9.06981 18.5V10.13H6.2998V18.5H9.06981Z" fill="#FDFDFD"/>
</svg>
