<svg width="25" height="24" viewBox="0 0 25 24" fill="none" xmlns="http://www.w3.org/2000/svg">
<g clip-path="url(#clip0_867_136)">
<path d="M12.7998 0C19.4341 0 24.7998 5.36571 24.7998 12C24.7998 18.6343 19.4341 24 12.7998 24C6.16552 24 0.799805 18.6343 0.799805 12C0.799805 5.36571 6.16552 0 12.7998 0ZM10.6055 18.3257C15.9198 18.3257 18.8341 13.92 18.8341 10.0971V9.72C19.3998 9.30857 19.8969 8.79429 20.2741 8.21143C19.7598 8.43429 19.1941 8.58857 18.6112 8.67429C19.2112 8.31429 19.6741 7.74857 19.8798 7.08C19.3141 7.40571 18.6969 7.64571 18.0455 7.78286C17.5141 7.21714 16.7598 6.87429 15.9369 6.87429C14.3427 6.87429 13.0398 8.17714 13.0398 9.77143C13.0398 9.99429 13.0569 10.2171 13.1255 10.4229C10.7255 10.3029 8.58266 9.15429 7.1598 7.40571C6.91981 7.83429 6.76552 8.33143 6.76552 8.86286C6.76552 9.85714 7.2798 10.7486 8.05123 11.2629C7.57123 11.2629 7.12552 11.1257 6.74838 10.9029V10.9371C6.74838 12.3429 7.74266 13.5086 9.06266 13.7829C8.82266 13.8514 8.56552 13.8857 8.30838 13.8857C8.1198 13.8857 7.94838 13.8686 7.7598 13.8343C8.1198 14.9829 9.19981 15.8229 10.4512 15.84C9.45695 16.6114 8.20552 17.0743 6.85123 17.0743C6.61123 17.0743 6.38838 17.0743 6.16552 17.04C7.43409 17.8629 8.9598 18.3429 10.5884 18.3429" fill="#FDFDFD"/>
</g>
<defs>
<clipPath id="clip0_867_136">
<rect width="24" height="24" fill="white" transform="translate(0.799805)"/>
</clipPath>
</defs>
</svg>
