<svg width="23" height="23" viewBox="0 0 23 23" fill="none" xmlns="http://www.w3.org/2000/svg">
<path d="M11.2254 1.84485C9.25608 1.84717 7.36808 2.63051 5.97556 4.02303C4.58303 5.41556 3.79969 7.30356 3.79737 9.27288C3.79501 10.8822 4.3207 12.4479 5.29378 13.7297C5.29378 13.7297 5.49636 13.9964 5.52945 14.0349L11.2254 20.7526L16.9241 14.0315C16.9538 13.9958 17.157 13.7297 17.157 13.7297L17.1577 13.7277C18.1303 12.4464 18.6557 10.8815 18.6534 9.27288C18.6511 7.30356 17.8678 5.41556 16.4752 4.02303C15.0827 2.63051 13.1947 1.84717 11.2254 1.84485ZM11.2254 11.974C10.6912 11.974 10.1689 11.8156 9.72475 11.5188C9.28056 11.222 8.93435 10.8001 8.72991 10.3065C8.52547 9.81299 8.47198 9.26988 8.5762 8.74592C8.68042 8.22196 8.93768 7.74067 9.31543 7.36291C9.69319 6.98516 10.1745 6.7279 10.6984 6.62368C11.2224 6.51946 11.7655 6.57295 12.2591 6.77739C12.7526 6.98183 13.1745 7.32803 13.4713 7.77223C13.7681 8.21642 13.9265 8.73865 13.9265 9.27288C13.9256 9.98898 13.6407 10.6755 13.1344 11.1819C12.628 11.6882 11.9415 11.9731 11.2254 11.974Z" fill="white"/>
</svg>
