<svg width="23" height="23" viewBox="0 0 23 23" fill="none" xmlns="http://www.w3.org/2000/svg">
<path d="M18.4283 10.4676H20.229C20.229 5.84876 16.7419 2.36523 12.1167 2.36523V4.16597C15.774 4.16597 18.4283 6.81575 18.4283 10.4676Z" fill="white"/>
<path d="M12.1258 7.76737C14.0192 7.76737 14.8269 8.575 14.8269 10.4685H16.6276C16.6276 7.56478 15.0294 5.96663 12.1258 5.96663V7.76737ZM15.2068 12.6681C15.0338 12.5108 14.8065 12.427 14.5728 12.4342C14.3391 12.4414 14.1174 12.5391 13.9544 12.7068L11.7998 14.9226C11.2812 14.8235 10.2386 14.4985 9.16535 13.428C8.09211 12.3538 7.76708 11.3085 7.67074 10.7935L9.88474 8.63802C10.0526 8.47517 10.1505 8.2534 10.1577 8.01965C10.1649 7.78591 10.0809 7.55852 9.92346 7.38561L6.5966 3.72742C6.43907 3.55397 6.22014 3.44876 5.98629 3.43413C5.75244 3.4195 5.5221 3.49661 5.34419 3.64908L3.39039 5.32467C3.23473 5.4809 3.14182 5.68882 3.12928 5.90901C3.11578 6.1341 2.85827 11.4661 6.99276 15.6024C10.5996 19.2083 15.1177 19.4721 16.362 19.4721C16.5439 19.4721 16.6555 19.4667 16.6852 19.4649C16.9054 19.4526 17.1132 19.3593 17.2687 19.2029L18.9433 17.2482C19.0959 17.0704 19.1732 16.8402 19.1587 16.6063C19.1443 16.3725 19.0392 16.1535 18.8659 15.9958L15.2068 12.6681Z" fill="white"/>
</svg>
