<svg width="113" height="39" viewBox="0 0 113 39" fill="none" xmlns="http://www.w3.org/2000/svg">
<path d="M12.6985 12.485C13.7603 12.485 14.7785 11.9578 15.5293 11.0193C16.28 10.0809 16.7018 8.80806 16.7018 7.48089C16.7018 6.15373 16.28 4.88092 15.5293 3.94247C14.7785 3.00402 13.7603 2.47681 12.6985 2.47681C11.6368 2.47681 10.6185 3.00402 9.86779 3.94247C9.11703 4.88092 8.69526 6.15373 8.69526 7.48089C8.69526 8.80806 9.11703 10.0809 9.86779 11.0193C10.6185 11.9578 11.6368 12.485 12.6985 12.485ZM12.6985 18.3898C9.54929 14.7368 5.3592 12.485 0.688721 12.485V30.8333C5.3592 30.8333 9.54929 33.0851 12.6985 36.7381C15.8478 33.0851 20.0378 30.8333 24.7083 30.8333V12.485C20.0378 12.485 15.8478 14.7368 12.6985 18.3898Z" fill="#F4BD1A"/>
<path d="M35.6484 12.5433C35.6484 12.3342 35.6163 12.1466 35.5519 11.9804C35.4929 11.8088 35.3804 11.6533 35.2141 11.5139C35.0479 11.3691 34.8147 11.2271 34.5145 11.0877C34.2142 10.9483 33.8255 10.8035 33.3483 10.6534C32.8175 10.4818 32.3136 10.2888 31.8364 10.0743C31.3646 9.85987 30.9464 9.61056 30.5818 9.3264C30.2226 9.03688 29.9384 8.70178 29.7293 8.32112C29.5256 7.94045 29.4237 7.49812 29.4237 6.99414C29.4237 6.50624 29.5309 6.06392 29.7454 5.66716C29.9599 5.26505 30.2601 4.92191 30.6461 4.63775C31.0322 4.34823 31.4879 4.12573 32.0133 3.97024C32.5441 3.81476 33.1258 3.73702 33.7585 3.73702C34.6217 3.73702 35.375 3.8925 36.0184 4.20347C36.6618 4.51444 37.1604 4.94068 37.5142 5.48219C37.8735 6.0237 38.0531 6.64296 38.0531 7.33996H35.6565C35.6565 6.99682 35.5841 6.69658 35.4393 6.43922C35.2999 6.17651 35.0855 5.97009 34.7959 5.81997C34.5118 5.66984 34.1526 5.59478 33.7183 5.59478C33.3001 5.59478 32.9516 5.65912 32.6728 5.7878C32.394 5.91111 32.1849 6.08 32.0455 6.29446C31.9061 6.50356 31.8364 6.73947 31.8364 7.00218C31.8364 7.20056 31.8846 7.38017 31.9812 7.54101C32.083 7.70186 32.2331 7.85198 32.4315 7.99138C32.6299 8.13078 32.8738 8.26214 33.1634 8.38545C33.4529 8.50877 33.788 8.6294 34.1687 8.74736C34.8067 8.94037 35.367 9.15751 35.8495 9.39878C36.3374 9.64005 36.7449 9.91081 37.0719 10.2111C37.399 10.5113 37.6456 10.8518 37.8118 11.2324C37.978 11.6131 38.0611 12.0447 38.0611 12.5272C38.0611 13.0366 37.9619 13.4923 37.7636 13.8944C37.5652 14.2965 37.2783 14.637 36.903 14.9158C36.5277 15.1946 36.08 15.4064 35.56 15.5511C35.0399 15.6959 34.4582 15.7683 33.8148 15.7683C33.2357 15.7683 32.6647 15.6932 32.1018 15.5431C31.5388 15.3876 31.0268 15.1544 30.5657 14.8434C30.11 14.5324 29.7454 14.1357 29.472 13.6531C29.1985 13.1706 29.0618 12.5996 29.0618 11.9401H31.4825C31.4825 12.3047 31.5388 12.613 31.6514 12.865C31.764 13.117 31.9222 13.3207 32.1259 13.4762C32.335 13.6317 32.5816 13.7443 32.8658 13.814C33.1553 13.8837 33.4717 13.9185 33.8148 13.9185C34.233 13.9185 34.5761 13.8596 34.8442 13.7416C35.1176 13.6237 35.3187 13.4601 35.4474 13.251C35.5814 13.0419 35.6484 12.806 35.6484 12.5433ZM44.2537 13.6451V9.76873C44.2537 9.48993 44.2081 9.25134 44.117 9.05296C44.0258 8.84923 43.8837 8.69106 43.6907 8.57847C43.5031 8.46588 43.2591 8.40958 42.9589 8.40958C42.7015 8.40958 42.479 8.45515 42.2914 8.5463C42.1037 8.63208 41.9589 8.75808 41.8571 8.92429C41.7552 9.08513 41.7043 9.27547 41.7043 9.49529H39.3881C39.3881 9.12534 39.4739 8.77416 39.6454 8.44175C39.817 8.10934 40.0663 7.81713 40.3934 7.56514C40.7204 7.30779 41.1091 7.10673 41.5595 6.96197C42.0152 6.81721 42.5246 6.74483 43.0875 6.74483C43.7631 6.74483 44.3636 6.85742 44.889 7.0826C45.4144 7.30779 45.8273 7.64556 46.1275 8.09593C46.4331 8.5463 46.5859 9.10926 46.5859 9.78481V13.5084C46.5859 13.9856 46.6154 14.377 46.6744 14.6826C46.7334 14.9828 46.8192 15.2455 46.9318 15.4707V15.6074H44.5914C44.4789 15.3715 44.3931 15.0766 44.3341 14.7228C44.2805 14.3635 44.2537 14.0043 44.2537 13.6451ZM44.5593 10.3076L44.5754 11.6185H43.2806C42.9749 11.6185 42.7096 11.6533 42.4844 11.723C42.2592 11.7927 42.0742 11.8919 41.9295 12.0206C41.7847 12.1439 41.6775 12.2886 41.6078 12.4548C41.5434 12.6211 41.5113 12.8033 41.5113 13.0017C41.5113 13.2001 41.5568 13.3797 41.648 13.5406C41.7391 13.696 41.8705 13.8194 42.042 13.9105C42.2136 13.9963 42.4147 14.0392 42.6452 14.0392C42.9937 14.0392 43.2966 13.9695 43.554 13.8301C43.8113 13.6907 44.0097 13.5191 44.1491 13.3154C44.2939 13.1116 44.3689 12.9186 44.3743 12.7363L44.9855 13.7175C44.8997 13.9373 44.7818 14.1652 44.6317 14.4011C44.4869 14.637 44.3019 14.8595 44.0767 15.0686C43.8516 15.2723 43.5808 15.4412 43.2645 15.5753C42.9481 15.7039 42.5728 15.7683 42.1386 15.7683C41.5863 15.7683 41.085 15.6584 40.6346 15.4385C40.1896 15.2134 39.8358 14.9051 39.5731 14.5137C39.3157 14.1169 39.187 13.6666 39.187 13.1626C39.187 12.7068 39.2728 12.302 39.4444 11.9482C39.616 11.5943 39.8679 11.2968 40.2004 11.0555C40.5381 10.8089 40.959 10.6239 41.463 10.5006C41.967 10.3719 42.5514 10.3076 43.2162 10.3076H44.5593ZM51.3228 15.6074H48.9906V6.13362C48.9906 5.47415 49.1193 4.91923 49.3766 4.46886C49.6393 4.01313 50.0066 3.67 50.4784 3.43945C50.9556 3.20354 51.5212 3.08559 52.1753 3.08559C52.3898 3.08559 52.5962 3.10168 52.7946 3.13384C52.9929 3.16065 53.186 3.1955 53.3736 3.23839L53.3495 4.98357C53.2476 4.95676 53.1404 4.938 53.0278 4.92727C52.9152 4.91655 52.7838 4.91119 52.6337 4.91119C52.3549 4.91119 52.1163 4.95944 51.918 5.05595C51.7249 5.1471 51.5775 5.28381 51.4756 5.46611C51.3738 5.6484 51.3228 5.8709 51.3228 6.13362V15.6074ZM53.06 6.90567V8.5463H47.6958V6.90567H53.06ZM58.0864 15.7683C57.4108 15.7683 56.805 15.661 56.2688 15.4466C55.7327 15.2268 55.277 14.9238 54.9017 14.5378C54.5317 14.1518 54.2475 13.7041 54.0492 13.1947C53.8508 12.68 53.7516 12.1332 53.7516 11.5541V11.2324C53.7516 10.573 53.8454 9.96978 54.0331 9.42291C54.2207 8.87603 54.4888 8.40154 54.8373 7.99942C55.1912 7.59731 55.6201 7.28902 56.1241 7.07456C56.6281 6.85474 57.1964 6.74483 57.829 6.74483C58.4456 6.74483 58.9925 6.8467 59.4697 7.05044C59.9468 7.25417 60.3463 7.5437 60.668 7.919C60.995 8.29431 61.2416 8.74468 61.4079 9.2701C61.5741 9.79017 61.6572 10.3692 61.6572 11.0072V11.9723H54.7408V10.4282H59.3812V10.2513C59.3812 9.92957 59.3222 9.64273 59.2043 9.39074C59.0917 9.13339 58.9201 8.92965 58.6896 8.77953C58.459 8.6294 58.1641 8.55434 57.8049 8.55434C57.4993 8.55434 57.2366 8.62136 57.0168 8.7554C56.7969 8.88944 56.6173 9.07709 56.4779 9.31836C56.3439 9.55963 56.242 9.84379 56.1723 10.1708C56.108 10.4925 56.0758 10.8464 56.0758 11.2324V11.5541C56.0758 11.9026 56.1241 12.2243 56.2206 12.5192C56.3225 12.8141 56.4645 13.0687 56.6468 13.2832C56.8345 13.4977 57.0597 13.6639 57.3224 13.7818C57.5905 13.8998 57.8934 13.9588 58.2312 13.9588C58.6494 13.9588 59.0381 13.8783 59.3973 13.7175C59.7619 13.5513 60.0755 13.302 60.3382 12.9696L61.4642 14.192C61.2819 14.4547 61.0325 14.7067 60.7162 14.948C60.4053 15.1892 60.0299 15.3876 59.5903 15.5431C59.1507 15.6932 58.6494 15.7683 58.0864 15.7683ZM70.9299 8.66693V10.5488H64.8178V8.66693H70.9299ZM65.5335 3.89786V15.6074H63.1209V3.89786H65.5335ZM72.651 3.89786V15.6074H70.2463V3.89786H72.651ZM79.3019 13.6451V9.76873C79.3019 9.48993 79.2564 9.25134 79.1652 9.05296C79.0741 8.84923 78.932 8.69106 78.739 8.57847C78.5513 8.46588 78.3074 8.40958 78.0071 8.40958C77.7498 8.40958 77.5273 8.45515 77.3396 8.5463C77.152 8.63208 77.0072 8.75808 76.9053 8.92429C76.8035 9.08513 76.7525 9.27547 76.7525 9.49529H74.4363C74.4363 9.12534 74.5221 8.77416 74.6937 8.44175C74.8653 8.10934 75.1146 7.81713 75.4416 7.56514C75.7687 7.30779 76.1574 7.10673 76.6078 6.96197C77.0635 6.81721 77.5728 6.74483 78.1358 6.74483C78.8114 6.74483 79.4118 6.85742 79.9373 7.0826C80.4627 7.30779 80.8755 7.64556 81.1758 8.09593C81.4814 8.5463 81.6342 9.10926 81.6342 9.78481V13.5084C81.6342 13.9856 81.6637 14.377 81.7227 14.6826C81.7816 14.9828 81.8674 15.2455 81.98 15.4707V15.6074H79.6397C79.5271 15.3715 79.4413 15.0766 79.3824 14.7228C79.3287 14.3635 79.3019 14.0043 79.3019 13.6451ZM79.6075 10.3076L79.6236 11.6185H78.3288C78.0232 11.6185 77.7578 11.6533 77.5326 11.723C77.3074 11.7927 77.1225 11.8919 76.9777 12.0206C76.8329 12.1439 76.7257 12.2886 76.656 12.4548C76.5917 12.6211 76.5595 12.8033 76.5595 13.0017C76.5595 13.2001 76.6051 13.3797 76.6962 13.5406C76.7874 13.696 76.9187 13.8194 77.0903 13.9105C77.2619 13.9963 77.4629 14.0392 77.6935 14.0392C78.042 14.0392 78.3449 13.9695 78.6023 13.8301C78.8596 13.6907 79.058 13.5191 79.1974 13.3154C79.3421 13.1116 79.4172 12.9186 79.4226 12.7363L80.0338 13.7175C79.948 13.9373 79.83 14.1652 79.6799 14.4011C79.5352 14.637 79.3502 14.8595 79.125 15.0686C78.8998 15.2723 78.6291 15.4412 78.3127 15.5753C77.9964 15.7039 77.6211 15.7683 77.1868 15.7683C76.6346 15.7683 76.1333 15.6584 75.6829 15.4385C75.2379 15.2134 74.884 14.9051 74.6213 14.5137C74.364 14.1169 74.2353 13.6666 74.2353 13.1626C74.2353 12.7068 74.3211 12.302 74.4926 11.9482C74.6642 11.5943 74.9162 11.2968 75.2486 11.0555C75.5864 10.8089 76.0073 10.6239 76.5113 10.5006C77.0152 10.3719 77.5996 10.3076 78.2645 10.3076H79.6075ZM86.2505 13.9185L88.1806 6.90567H90.6013L87.6659 15.6074H86.2022L86.2505 13.9185ZM84.9235 6.90567L86.8617 13.9266L86.9019 15.6074H85.4301L82.4947 6.90567H84.9235ZM95.5312 15.7683C94.8557 15.7683 94.2498 15.661 93.7137 15.4466C93.1775 15.2268 92.7218 14.9238 92.3465 14.5378C91.9766 14.1518 91.6924 13.7041 91.494 13.1947C91.2956 12.68 91.1965 12.1332 91.1965 11.5541V11.2324C91.1965 10.573 91.2903 9.96978 91.4779 9.42291C91.6656 8.87603 91.9337 8.40154 92.2822 7.99942C92.636 7.59731 93.0649 7.28902 93.5689 7.07456C94.0729 6.85474 94.6412 6.74483 95.2739 6.74483C95.8905 6.74483 96.4373 6.8467 96.9145 7.05044C97.3917 7.25417 97.7911 7.5437 98.1128 7.919C98.4399 8.29431 98.6865 8.74468 98.8527 9.2701C99.0189 9.79017 99.102 10.3692 99.102 11.0072V11.9723H92.1857V10.4282H96.8261V10.2513C96.8261 9.92957 96.7671 9.64273 96.6491 9.39074C96.5365 9.13339 96.365 8.92965 96.1344 8.77953C95.9039 8.6294 95.609 8.55434 95.2498 8.55434C94.9442 8.55434 94.6814 8.62136 94.4616 8.7554C94.2418 8.88944 94.0622 9.07709 93.9228 9.31836C93.7888 9.55963 93.6869 9.84379 93.6172 10.1708C93.5528 10.4925 93.5207 10.8464 93.5207 11.2324V11.5541C93.5207 11.9026 93.5689 12.2243 93.6654 12.5192C93.7673 12.8141 93.9094 13.0687 94.0917 13.2832C94.2793 13.4977 94.5045 13.6639 94.7672 13.7818C95.0353 13.8998 95.3382 13.9588 95.676 13.9588C96.0942 13.9588 96.4829 13.8783 96.8421 13.7175C97.2067 13.5513 97.5204 13.302 97.7831 12.9696L98.909 14.192C98.7267 14.4547 98.4774 14.7067 98.1611 14.948C97.8501 15.1892 97.4748 15.3876 97.0352 15.5431C96.5955 15.6932 96.0942 15.7683 95.5312 15.7683ZM102.689 8.76344V15.6074H100.373V6.90567H102.544L102.689 8.76344ZM102.351 10.9509H101.724C101.724 10.3076 101.807 9.72851 101.973 9.21381C102.139 8.69374 102.373 8.25142 102.673 7.88683C102.973 7.51689 103.33 7.23541 103.742 7.04239C104.161 6.84402 104.627 6.74483 105.142 6.74483C105.549 6.74483 105.922 6.80381 106.26 6.92176C106.597 7.03971 106.887 7.22737 107.128 7.48472C107.375 7.74207 107.562 8.08253 107.691 8.50609C107.825 8.92965 107.892 9.44703 107.892 10.0582V15.6074H105.56V10.0502C105.56 9.66418 105.506 9.36393 105.399 9.14947C105.292 8.93501 105.134 8.78489 104.925 8.6991C104.721 8.60796 104.469 8.56238 104.169 8.56238C103.858 8.56238 103.587 8.62404 103.356 8.74736C103.131 8.87067 102.944 9.04224 102.793 9.26206C102.649 9.47652 102.539 9.72851 102.464 10.018C102.389 10.3076 102.351 10.6185 102.351 10.9509Z" fill="#F4BD1A"/>
<path d="M34.2732 22.8979V34.6074H31.8686V22.8979H34.2732ZM37.8761 22.8979V24.7878H28.3219V22.8979H37.8761ZM42.3557 34.7683C41.6801 34.7683 41.0743 34.661 40.5381 34.4466C40.002 34.2268 39.5463 33.9238 39.1709 33.5378C38.801 33.1518 38.5168 32.7041 38.3185 32.1947C38.1201 31.68 38.0209 31.1332 38.0209 30.5541V30.2324C38.0209 29.573 38.1147 28.9698 38.3024 28.4229C38.49 27.876 38.7581 27.4015 39.1066 26.9994C39.4605 26.5973 39.8894 26.289 40.3934 26.0746C40.8974 25.8547 41.4657 25.7448 42.0983 25.7448C42.7149 25.7448 43.2618 25.8467 43.739 26.0504C44.2161 26.2542 44.6156 26.5437 44.9373 26.919C45.2643 27.2943 45.5109 27.7447 45.6772 28.2701C45.8434 28.7902 45.9265 29.3692 45.9265 30.0072V30.9723H39.0101V29.4282H43.6505V29.2513C43.6505 28.9296 43.5915 28.6427 43.4736 28.3907C43.361 28.1334 43.1894 27.9296 42.9589 27.7795C42.7283 27.6294 42.4334 27.5543 42.0742 27.5543C41.7686 27.5543 41.5059 27.6214 41.2861 27.7554C41.0662 27.8894 40.8866 28.0771 40.7472 28.3184C40.6132 28.5596 40.5113 28.8438 40.4416 29.1708C40.3773 29.4925 40.3451 29.8464 40.3451 30.2324V30.5541C40.3451 30.9026 40.3934 31.2243 40.4899 31.5192C40.5918 31.8141 40.7338 32.0687 40.9161 32.2832C41.1038 32.4977 41.329 32.6639 41.5917 32.7818C41.8598 32.8998 42.1627 32.9588 42.5005 32.9588C42.9187 32.9588 43.3074 32.8783 43.6666 32.7175C44.0312 32.5513 44.3448 32.302 44.6075 31.9696L45.7335 33.192C45.5512 33.4547 45.3018 33.7067 44.9855 33.948C44.6746 34.1892 44.2992 34.3876 43.8596 34.5431C43.42 34.6932 42.9187 34.7683 42.3557 34.7683ZM50.8403 32.9588C51.1245 32.9588 51.3765 32.9051 51.5963 32.7979C51.8161 32.6853 51.9877 32.5298 52.111 32.3315C52.2397 32.1277 52.3067 31.8891 52.312 31.6157H54.4915C54.4861 32.2269 54.3226 32.7711 54.0009 33.2483C53.6792 33.7201 53.2476 34.0927 52.7061 34.3662C52.1646 34.6342 51.5587 34.7683 50.8886 34.7683C50.213 34.7683 49.6232 34.6557 49.1193 34.4305C48.6206 34.2053 48.2051 33.8943 47.8727 33.4976C47.5403 33.0955 47.291 32.629 47.1248 32.0982C46.9586 31.5621 46.8755 30.9884 46.8755 30.3772V30.144C46.8755 29.5274 46.9586 28.9537 47.1248 28.4229C47.291 27.8868 47.5403 27.4203 47.8727 27.0236C48.2051 26.6214 48.6206 26.3078 49.1193 26.0826C49.6179 25.8574 50.2023 25.7448 50.8725 25.7448C51.5855 25.7448 52.2102 25.8815 52.7463 26.155C53.2878 26.4284 53.7114 26.8198 54.017 27.3292C54.328 27.8331 54.4861 28.431 54.4915 29.1226H52.312C52.3067 28.8331 52.245 28.5703 52.1271 28.3344C52.0145 28.0985 51.8483 27.9109 51.6284 27.7715C51.414 27.6267 51.1486 27.5543 50.8323 27.5543C50.4945 27.5543 50.2184 27.6267 50.0039 27.7715C49.7894 27.9109 49.6232 28.1039 49.5053 28.3505C49.3873 28.5918 49.3042 28.8679 49.256 29.1789C49.2131 29.4845 49.1916 29.8062 49.1916 30.144V30.3772C49.1916 30.715 49.2131 31.0393 49.256 31.3503C49.2989 31.6613 49.3793 31.9374 49.4972 32.1787C49.6206 32.4199 49.7894 32.6103 50.0039 32.7497C50.2184 32.8891 50.4972 32.9588 50.8403 32.9588ZM58.0944 22.2545V34.6074H55.7783V22.2545H58.0944ZM57.7647 29.9509H57.1294C57.1347 29.3451 57.2151 28.7875 57.3706 28.2781C57.5261 27.7634 57.7486 27.3184 58.0381 26.9431C58.3277 26.5625 58.6735 26.2676 59.0756 26.0585C59.4831 25.8494 59.9334 25.7448 60.4267 25.7448C60.8556 25.7448 61.2443 25.8065 61.5928 25.9298C61.9467 26.0478 62.2496 26.2408 62.5016 26.5088C62.759 26.7716 62.9573 27.1174 63.0967 27.5463C63.2361 27.9752 63.3058 28.4953 63.3058 29.1065V34.6074H60.9736V29.0904C60.9736 28.7044 60.9173 28.4015 60.8047 28.1816C60.6975 27.9565 60.5393 27.7983 60.3302 27.7071C60.1265 27.6106 59.8745 27.5624 59.5742 27.5624C59.2418 27.5624 58.9576 27.624 58.7217 27.7474C58.4912 27.8707 58.3062 28.0422 58.1668 28.2621C58.0274 28.4765 57.9255 28.7285 57.8612 29.018C57.7969 29.3076 57.7647 29.6185 57.7647 29.9509ZM74.1147 22.8979V34.6074H71.71V22.8979H74.1147ZM77.7176 22.8979V24.7878H68.1634V22.8979H77.7176ZM82.1972 34.7683C81.5216 34.7683 80.9157 34.661 80.3796 34.4466C79.8434 34.2268 79.3877 33.9238 79.0124 33.5378C78.6425 33.1518 78.3583 32.7041 78.1599 32.1947C77.9615 31.68 77.8624 31.1332 77.8624 30.5541V30.2324C77.8624 29.573 77.9562 28.9698 78.1438 28.4229C78.3315 27.876 78.5996 27.4015 78.9481 26.9994C79.3019 26.5973 79.7309 26.289 80.2348 26.0746C80.7388 25.8547 81.3071 25.7448 81.9398 25.7448C82.5564 25.7448 83.1032 25.8467 83.5804 26.0504C84.0576 26.2542 84.457 26.5437 84.7787 26.919C85.1058 27.2943 85.3524 27.7447 85.5186 28.2701C85.6848 28.7902 85.7679 29.3692 85.7679 30.0072V30.9723H78.8516V29.4282H83.492V29.2513C83.492 28.9296 83.433 28.6427 83.315 28.3907C83.2024 28.1334 83.0309 27.9296 82.8003 27.7795C82.5698 27.6294 82.2749 27.5543 81.9157 27.5543C81.6101 27.5543 81.3473 27.6214 81.1275 27.7554C80.9077 27.8894 80.7281 28.0771 80.5887 28.3184C80.4547 28.5596 80.3528 28.8438 80.2831 29.1708C80.2187 29.4925 80.1866 29.8464 80.1866 30.2324V30.5541C80.1866 30.9026 80.2348 31.2243 80.3313 31.5192C80.4332 31.8141 80.5753 32.0687 80.7576 32.2832C80.9452 32.4977 81.1704 32.6639 81.4331 32.7818C81.7012 32.8998 82.0041 32.9588 82.3419 32.9588C82.7601 32.9588 83.1488 32.8783 83.508 32.7175C83.8726 32.5513 84.1863 32.302 84.449 31.9696L85.5749 33.192C85.3926 33.4547 85.1433 33.7067 84.827 33.948C84.516 34.1892 84.1407 34.3876 83.7011 34.5431C83.2614 34.6932 82.7601 34.7683 82.1972 34.7683ZM91.7835 32.6451V28.7687C91.7835 28.4899 91.738 28.2513 91.6468 28.053C91.5557 27.8492 91.4136 27.6911 91.2206 27.5785C91.0329 27.4659 90.789 27.4096 90.4887 27.4096C90.2314 27.4096 90.0089 27.4552 89.8212 27.5463C89.6336 27.6321 89.4888 27.7581 89.3869 27.9243C89.2851 28.0851 89.2341 28.2755 89.2341 28.4953H86.918C86.918 28.1253 87.0038 27.7742 87.1753 27.4417C87.3469 27.1093 87.5962 26.8171 87.9233 26.5651C88.2503 26.3078 88.639 26.1067 89.0894 25.962C89.5451 25.8172 90.0545 25.7448 90.6174 25.7448C91.293 25.7448 91.8935 25.8574 92.4189 26.0826C92.9443 26.3078 93.3572 26.6456 93.6574 27.0959C93.963 27.5463 94.1158 28.1093 94.1158 28.7848V32.5084C94.1158 32.9856 94.1453 33.377 94.2043 33.6826C94.2632 33.9828 94.349 34.2455 94.4616 34.4707V34.6074H92.1213C92.0087 34.3715 91.9229 34.0766 91.864 33.7228C91.8104 33.3635 91.7835 33.0043 91.7835 32.6451ZM92.0892 29.3076L92.1052 30.6185H90.8104C90.5048 30.6185 90.2394 30.6533 90.0142 30.723C89.7891 30.7927 89.6041 30.8919 89.4593 31.0206C89.3146 31.1439 89.2073 31.2886 89.1376 31.4548C89.0733 31.6211 89.0411 31.8033 89.0411 32.0017C89.0411 32.2001 89.0867 32.3797 89.1778 32.5406C89.269 32.696 89.4004 32.8194 89.5719 32.9105C89.7435 32.9963 89.9445 33.0392 90.1751 33.0392C90.5236 33.0392 90.8265 32.9695 91.0839 32.8301C91.3412 32.6907 91.5396 32.5191 91.679 32.3154C91.8238 32.1116 91.8988 31.9186 91.9042 31.7363L92.5154 32.7175C92.4296 32.9373 92.3117 33.1652 92.1615 33.4011C92.0168 33.637 91.8318 33.8595 91.6066 34.0686C91.3814 34.2723 91.1107 34.4412 90.7943 34.5753C90.478 34.7039 90.1027 34.7683 89.6684 34.7683C89.1162 34.7683 88.6149 34.6584 88.1645 34.4385C87.7195 34.2134 87.3657 33.9051 87.1029 33.5137C86.8456 33.1169 86.7169 32.6666 86.7169 32.1626C86.7169 31.7068 86.8027 31.302 86.9743 30.9482C87.1458 30.5943 87.3978 30.2968 87.7302 30.0555C88.068 29.8089 88.4889 29.6239 88.9929 29.5006C89.4969 29.3719 90.0813 29.3076 90.7461 29.3076H92.0892ZM98.2174 27.7071V34.6074H95.8932V25.9057H98.0726L98.2174 27.7071ZM97.8957 29.9509H97.2523C97.2523 29.3451 97.3247 28.7875 97.4694 28.2781C97.6196 27.7634 97.8367 27.3184 98.1209 26.9431C98.4104 26.5625 98.7669 26.2676 99.1905 26.0585C99.614 25.8494 100.105 25.7448 100.662 25.7448C101.048 25.7448 101.402 25.8038 101.724 25.9218C102.045 26.0344 102.322 26.214 102.552 26.4606C102.788 26.7019 102.97 27.0182 103.099 27.4096C103.228 27.7956 103.292 28.2594 103.292 28.8009V34.6074H100.976V29.0582C100.976 28.6615 100.922 28.3559 100.815 28.1414C100.708 27.927 100.555 27.7768 100.357 27.6911C100.164 27.6053 99.9304 27.5624 99.6569 27.5624C99.3567 27.5624 99.094 27.624 98.8688 27.7474C98.649 27.8707 98.4667 28.0422 98.3219 28.2621C98.1772 28.4765 98.0699 28.7285 98.0002 29.018C97.9305 29.3076 97.8957 29.6185 97.8957 29.9509ZM103.075 29.6855L102.247 29.7901C102.247 29.2218 102.316 28.6937 102.456 28.2058C102.6 27.7179 102.812 27.2889 103.091 26.919C103.375 26.5491 103.726 26.2622 104.145 26.0585C104.563 25.8494 105.045 25.7448 105.592 25.7448C106.01 25.7448 106.391 25.8065 106.734 25.9298C107.077 26.0478 107.369 26.2381 107.611 26.5008C107.857 26.7582 108.045 27.0959 108.174 27.5141C108.308 27.9323 108.375 28.4444 108.375 29.0502V34.6074H106.051V29.0502C106.051 28.6481 105.997 28.3425 105.89 28.1334C105.788 27.9189 105.638 27.7715 105.439 27.6911C105.246 27.6053 105.016 27.5624 104.748 27.5624C104.469 27.5624 104.225 27.6187 104.016 27.7313C103.807 27.8385 103.633 27.9886 103.493 28.1816C103.354 28.3747 103.249 28.5998 103.179 28.8572C103.11 29.1092 103.075 29.3853 103.075 29.6855Z" fill="black"/>
</svg>
