<svg width="51" height="72" viewBox="0 0 51 72" fill="none" xmlns="http://www.w3.org/2000/svg">
<path d="M25.0817 21.1251C27.2991 21.1251 29.4257 20.024 30.9936 18.0641C32.5615 16.1042 33.4423 13.4461 33.4423 10.6744C33.4423 7.90265 32.5615 5.24447 30.9936 3.28458C29.4257 1.32469 27.2991 0.223633 25.0817 0.223633C22.8644 0.223633 20.7378 1.32469 19.1699 3.28458C17.602 5.24447 16.7212 7.90265 16.7212 10.6744C16.7212 13.4461 17.602 16.1042 19.1699 18.0641C20.7378 20.024 22.8644 21.1251 25.0817 21.1251ZM25.0817 33.4569C18.5048 25.8279 9.75401 21.1251 0 21.1251V59.4444C9.75401 59.4444 18.5048 64.1472 25.0817 71.7763C31.6587 64.1472 40.4095 59.4444 50.1635 59.4444V21.1251C40.4095 21.1251 31.6587 25.8279 25.0817 33.4569Z" fill="#F4BD1A"/>
</svg>
