<svg width="128" height="44" viewBox="0 0 128 44" fill="none" xmlns="http://www.w3.org/2000/svg">
<path d="M13.7255 13.86C14.9389 13.86 16.1026 13.2575 16.9606 12.185C17.8186 11.1125 18.3007 9.65783 18.3007 8.14107C18.3007 6.62431 17.8186 5.16967 16.9606 4.09716C16.1026 3.02465 14.9389 2.42212 13.7255 2.42212C12.5121 2.42212 11.3484 3.02465 10.4904 4.09716C9.63235 5.16967 9.15033 6.62431 9.15033 8.14107C9.15033 9.65783 9.63235 11.1125 10.4904 12.185C11.3484 13.2575 12.5121 13.86 13.7255 13.86ZM13.7255 20.6084C10.1264 16.4336 5.33769 13.86 0 13.86V34.8295C5.33769 34.8295 10.1264 37.4031 13.7255 41.5779C17.3246 37.4031 22.1133 34.8295 27.451 34.8295V13.86C22.1133 13.86 17.3246 16.4336 13.7255 20.6084Z" fill="#F4BD1A"/>
<path d="M39.9542 13.4982C39.9542 13.2592 39.9175 13.0447 39.8439 12.8548C39.7765 12.6587 39.6479 12.481 39.4579 12.3217C39.268 12.1562 39.0014 11.9939 38.6583 11.8346C38.3151 11.6752 37.8709 11.5098 37.3256 11.3382C36.7189 11.1422 36.143 10.9216 35.5976 10.6765C35.0584 10.4314 34.5805 10.1464 34.1638 9.82169C33.7533 9.49081 33.4285 9.10784 33.1895 8.67279C32.9567 8.23774 32.8403 7.73223 32.8403 7.15625C32.8403 6.59865 32.9628 6.09314 33.2079 5.63971C33.453 5.18015 33.7961 4.78799 34.2373 4.46323C34.6785 4.13235 35.1993 3.87806 35.7998 3.70037C36.4064 3.52267 37.0713 3.43382 37.7943 3.43382C38.7808 3.43382 39.6417 3.61152 40.377 3.96691C41.1123 4.3223 41.6822 4.80944 42.0866 5.42831C42.4971 6.04718 42.7024 6.7549 42.7024 7.55147H39.9634C39.9634 7.15931 39.8807 6.81618 39.7153 6.52206C39.5559 6.22181 39.3109 5.98591 38.98 5.81434C38.6552 5.64277 38.2447 5.55698 37.7484 5.55698C37.2704 5.55698 36.8721 5.63051 36.5535 5.77757C36.2349 5.9185 35.9959 6.11152 35.8366 6.35662C35.6773 6.59559 35.5976 6.8652 35.5976 7.16544C35.5976 7.39216 35.6528 7.59743 35.7631 7.78125C35.8795 7.96507 36.051 8.13664 36.2778 8.29596C36.5045 8.45527 36.7833 8.60539 37.1142 8.74632C37.445 8.88725 37.828 9.02512 38.2631 9.15993C38.9922 9.38051 39.6325 9.62868 40.184 9.90441C40.7416 10.1801 41.2073 10.4896 41.5811 10.8327C41.9548 11.1759 42.2367 11.565 42.4267 12C42.6166 12.435 42.7116 12.9283 42.7116 13.4798C42.7116 14.0619 42.5982 14.5827 42.3715 15.0423C42.1448 15.5018 41.817 15.8909 41.3881 16.2096C40.9591 16.5282 40.4475 16.7702 39.8531 16.9357C39.2588 17.1011 38.5939 17.1838 37.8586 17.1838C37.1969 17.1838 36.5443 17.098 35.9009 16.9265C35.2575 16.7488 34.6724 16.4822 34.1454 16.1268C33.6246 15.7714 33.2079 15.318 32.8954 14.7665C32.5829 14.2151 32.4267 13.5625 32.4267 12.8088H35.1932C35.1932 13.2255 35.2575 13.5778 35.3862 13.8658C35.5149 14.1538 35.6957 14.3866 35.9285 14.5643C36.1675 14.742 36.4493 14.8707 36.7741 14.9504C37.105 15.03 37.4665 15.0699 37.8586 15.0699C38.3366 15.0699 38.7287 15.0025 39.0351 14.8676C39.3476 14.7328 39.5774 14.546 39.7245 14.307C39.8776 14.068 39.9542 13.7984 39.9542 13.4982ZM49.7888 14.7574V10.3272C49.7888 10.0086 49.7367 9.73591 49.6325 9.50919C49.5284 9.27635 49.366 9.09559 49.1454 8.96691C48.931 8.83823 48.6522 8.7739 48.309 8.7739C48.0149 8.7739 47.7606 8.82598 47.5461 8.93015C47.3317 9.02819 47.1662 9.17218 47.0498 9.36213C46.9334 9.54596 46.8752 9.76348 46.8752 10.0147H44.2281C44.2281 9.59191 44.3262 9.19056 44.5222 8.81066C44.7183 8.43076 45.0033 8.09681 45.377 7.80882C45.7508 7.51471 46.195 7.28493 46.7097 7.11948C47.2306 6.95404 47.8127 6.87132 48.4561 6.87132C49.2281 6.87132 49.9144 7 50.5149 7.25735C51.1154 7.51471 51.5872 7.90073 51.9303 8.41544C52.2796 8.93015 52.4542 9.57353 52.4542 10.3456V14.6011C52.4542 15.1464 52.4879 15.5937 52.5553 15.943C52.6227 16.2862 52.7208 16.5864 52.8495 16.8437V17H50.1748C50.0461 16.7304 49.9481 16.3934 49.8807 15.989C49.8194 15.5784 49.7888 15.1679 49.7888 14.7574ZM50.1381 10.943L50.1564 12.4412H48.6767C48.3274 12.4412 48.0241 12.481 47.7667 12.5607C47.5094 12.6403 47.298 12.7537 47.1325 12.9007C46.9671 13.0417 46.8446 13.2071 46.7649 13.3971C46.6914 13.587 46.6546 13.7953 46.6546 14.0221C46.6546 14.2488 46.7067 14.454 46.8109 14.6379C46.915 14.8156 47.0651 14.9565 47.2612 15.0607C47.4573 15.1587 47.6871 15.2077 47.9506 15.2077C48.3488 15.2077 48.695 15.1281 48.9892 14.9687C49.2833 14.8094 49.51 14.6134 49.6693 14.3805C49.8347 14.1477 49.9205 13.9271 49.9267 13.7187L50.6252 14.8401C50.5272 15.0913 50.3923 15.3517 50.2208 15.6213C50.0553 15.8909 49.8439 16.1452 49.5866 16.3842C49.3292 16.617 49.0198 16.81 48.6583 16.9632C48.2968 17.1103 47.8678 17.1838 47.3715 17.1838C46.7404 17.1838 46.1675 17.0582 45.6528 16.807C45.1442 16.5496 44.7398 16.1973 44.4395 15.75C44.1454 15.2966 43.9984 14.7819 43.9984 14.2059C43.9984 13.685 44.0964 13.2224 44.2925 12.818C44.4885 12.4136 44.7765 12.0735 45.1564 11.7978C45.5425 11.5159 46.0235 11.3045 46.5995 11.1636C47.1754 11.0165 47.8433 10.943 48.6031 10.943H50.1381ZM57.8678 17H55.2024V6.17279C55.2024 5.41912 55.3495 4.78493 55.6436 4.27022C55.9438 3.74939 56.3635 3.35723 56.9028 3.09375C57.4481 2.82414 58.0946 2.68934 58.8421 2.68934C59.0872 2.68934 59.3231 2.70772 59.5498 2.74448C59.7765 2.77512 59.9971 2.81495 60.2116 2.86397L60.184 4.85846C60.0676 4.82782 59.945 4.80637 59.8164 4.79412C59.6877 4.78186 59.5376 4.77573 59.366 4.77573C59.0474 4.77573 58.7747 4.83088 58.548 4.94118C58.3274 5.04534 58.1589 5.20159 58.0425 5.40993C57.926 5.61826 57.8678 5.87255 57.8678 6.17279V17ZM59.8531 7.05515V8.93015H53.7226V7.05515H59.8531ZM65.5976 17.1838C64.8256 17.1838 64.1332 17.0613 63.5204 16.8162C62.9077 16.565 62.3868 16.2187 61.9579 15.7776C61.5351 15.3364 61.2104 14.8248 60.9836 14.2426C60.7569 13.6544 60.6436 13.0294 60.6436 12.3676V12C60.6436 11.2463 60.7508 10.557 60.9653 9.93198C61.1797 9.30698 61.4861 8.76471 61.8844 8.30515C62.2888 7.84559 62.779 7.49326 63.355 7.24816C63.9309 6.99694 64.5805 6.87132 65.3035 6.87132C66.0082 6.87132 66.6332 6.98774 67.1785 7.22059C67.7238 7.45343 68.1803 7.78431 68.548 8.21323C68.9218 8.64216 69.2036 9.15686 69.3936 9.75735C69.5835 10.3517 69.6785 11.0135 69.6785 11.7426V12.8456H61.7741V11.0809H67.0774V10.8787C67.0774 10.511 67.01 10.1832 66.8752 9.89522C66.7465 9.6011 66.5504 9.36826 66.287 9.19669C66.0235 9.02512 65.6865 8.93934 65.2759 8.93934C64.9267 8.93934 64.6264 9.01593 64.3752 9.16912C64.124 9.3223 63.9187 9.53676 63.7594 9.8125C63.6062 10.0882 63.4898 10.413 63.4101 10.7868C63.3366 11.1544 63.2998 11.5588 63.2998 12V12.3676C63.2998 12.7659 63.355 13.1336 63.4653 13.4706C63.5817 13.8076 63.7441 14.0987 63.9524 14.3437C64.1669 14.5888 64.4242 14.7788 64.7245 14.9136C65.0308 15.0484 65.377 15.1158 65.7631 15.1158C66.241 15.1158 66.6852 15.0239 67.0958 14.8401C67.5124 14.6501 67.8709 14.3652 68.1711 13.9853L69.4579 15.3824C69.2496 15.6826 68.9646 15.9706 68.6031 16.2463C68.2477 16.5221 67.8188 16.7488 67.3164 16.9265C66.8139 17.098 66.241 17.1838 65.5976 17.1838ZM80.2759 9.06801V11.2187H73.2906V9.06801H80.2759ZM74.1086 3.61765V17H71.3513V3.61765H74.1086ZM82.2428 3.61765V17H79.4947V3.61765H82.2428ZM89.8439 14.7574V10.3272C89.8439 10.0086 89.7919 9.73591 89.6877 9.50919C89.5835 9.27635 89.4211 9.09559 89.2006 8.96691C88.9861 8.83823 88.7073 8.7739 88.3642 8.7739C88.07 8.7739 87.8158 8.82598 87.6013 8.93015C87.3868 9.02819 87.2214 9.17218 87.105 9.36213C86.9886 9.54596 86.9303 9.76348 86.9303 10.0147H84.2833C84.2833 9.59191 84.3813 9.19056 84.5774 8.81066C84.7735 8.43076 85.0584 8.09681 85.4322 7.80882C85.806 7.51471 86.2502 7.28493 86.7649 7.11948C87.2857 6.95404 87.8678 6.87132 88.5112 6.87132C89.2833 6.87132 89.9696 7 90.57 7.25735C91.1705 7.51471 91.6424 7.90073 91.9855 8.41544C92.3348 8.93015 92.5094 9.57353 92.5094 10.3456V14.6011C92.5094 15.1464 92.5431 15.5937 92.6105 15.943C92.6779 16.2862 92.7759 16.5864 92.9046 16.8437V17H90.23C90.1013 16.7304 90.0033 16.3934 89.9359 15.989C89.8746 15.5784 89.8439 15.1679 89.8439 14.7574ZM90.1932 10.943L90.2116 12.4412H88.7318C88.3825 12.4412 88.0792 12.481 87.8219 12.5607C87.5645 12.6403 87.3531 12.7537 87.1877 12.9007C87.0223 13.0417 86.8997 13.2071 86.82 13.3971C86.7465 13.587 86.7098 13.7953 86.7098 14.0221C86.7098 14.2488 86.7618 14.454 86.866 14.6379C86.9702 14.8156 87.1203 14.9565 87.3164 15.0607C87.5124 15.1587 87.7422 15.2077 88.0057 15.2077C88.404 15.2077 88.7502 15.1281 89.0443 14.9687C89.3384 14.8094 89.5651 14.6134 89.7245 14.3805C89.8899 14.1477 89.9757 13.9271 89.9818 13.7187L90.6803 14.8401C90.5823 15.0913 90.4475 15.3517 90.2759 15.6213C90.1105 15.8909 89.8991 16.1452 89.6417 16.3842C89.3844 16.617 89.0749 16.81 88.7134 16.9632C88.3519 17.1103 87.923 17.1838 87.4267 17.1838C86.7955 17.1838 86.2226 17.0582 85.7079 16.807C85.1993 16.5496 84.7949 16.1973 84.4947 15.75C84.2006 15.2966 84.0535 14.7819 84.0535 14.2059C84.0535 13.685 84.1515 13.2224 84.3476 12.818C84.5437 12.4136 84.8317 12.0735 85.2116 11.7978C85.5976 11.5159 86.0786 11.3045 86.6546 11.1636C87.2306 11.0165 87.8985 10.943 88.6583 10.943H90.1932ZM97.7851 15.0699L99.991 7.05515H102.758L99.4028 17H97.73L97.7851 15.0699ZM96.2686 7.05515L98.4836 15.079L98.5296 17H96.8476L93.4928 7.05515H96.2686ZM108.392 17.1838C107.62 17.1838 106.927 17.0613 106.315 16.8162C105.702 16.565 105.181 16.2187 104.752 15.7776C104.329 15.3364 104.004 14.8248 103.778 14.2426C103.551 13.6544 103.438 13.0294 103.438 12.3676V12C103.438 11.2463 103.545 10.557 103.759 9.93198C103.974 9.30698 104.28 8.76471 104.679 8.30515C105.083 7.84559 105.573 7.49326 106.149 7.24816C106.725 6.99694 107.375 6.87132 108.098 6.87132C108.802 6.87132 109.427 6.98774 109.973 7.22059C110.518 7.45343 110.974 7.78431 111.342 8.21323C111.716 8.64216 111.998 9.15686 112.188 9.75735C112.378 10.3517 112.473 11.0135 112.473 11.7426V12.8456H104.568V11.0809H109.872V10.8787C109.872 10.511 109.804 10.1832 109.669 9.89522C109.541 9.6011 109.345 9.36826 109.081 9.19669C108.818 9.02512 108.481 8.93934 108.07 8.93934C107.721 8.93934 107.421 9.01593 107.169 9.16912C106.918 9.3223 106.713 9.53676 106.554 9.8125C106.4 10.0882 106.284 10.413 106.204 10.7868C106.131 11.1544 106.094 11.5588 106.094 12V12.3676C106.094 12.7659 106.149 13.1336 106.259 13.4706C106.376 13.8076 106.538 14.0987 106.747 14.3437C106.961 14.5888 107.218 14.7788 107.519 14.9136C107.825 15.0484 108.171 15.1158 108.557 15.1158C109.035 15.1158 109.479 15.0239 109.89 14.8401C110.307 14.6501 110.665 14.3652 110.965 13.9853L112.252 15.3824C112.044 15.6826 111.759 15.9706 111.397 16.2463C111.042 16.5221 110.613 16.7488 110.11 16.9265C109.608 17.098 109.035 17.1838 108.392 17.1838ZM116.572 9.17831V17H113.925V7.05515H116.406L116.572 9.17831ZM116.186 11.6783H115.469C115.469 10.943 115.564 10.2812 115.754 9.69301C115.944 9.09865 116.21 8.59314 116.554 8.17647C116.897 7.75368 117.304 7.43198 117.776 7.2114C118.254 6.98468 118.787 6.87132 119.375 6.87132C119.841 6.87132 120.267 6.93873 120.653 7.07353C121.039 7.20833 121.37 7.42279 121.645 7.71691C121.927 8.01103 122.142 8.40012 122.289 8.88419C122.442 9.36826 122.519 9.95956 122.519 10.6581V17H119.853V10.6489C119.853 10.2077 119.792 9.86458 119.669 9.61948C119.547 9.37439 119.366 9.20282 119.127 9.10478C118.894 9.00061 118.606 8.94853 118.263 8.94853C117.908 8.94853 117.598 9.01899 117.335 9.15993C117.077 9.30086 116.863 9.49694 116.691 9.74816C116.526 9.99326 116.4 10.2812 116.315 10.6121C116.229 10.943 116.186 11.2984 116.186 11.6783Z" fill="#F4BD1A"/>
<path d="M38.3825 25.6176V39H35.6344V25.6176H38.3825ZM42.5002 25.6176V27.7776H31.5811V25.6176H42.5002ZM47.6197 39.1838C46.8476 39.1838 46.1552 39.0613 45.5425 38.8162C44.9297 38.565 44.4089 38.2187 43.98 37.7776C43.5572 37.3364 43.2324 36.8248 43.0057 36.2426C42.779 35.6544 42.6656 35.0294 42.6656 34.3676V34C42.6656 33.2463 42.7729 32.557 42.9873 31.932C43.2018 31.307 43.5082 30.7647 43.9064 30.3051C44.3109 29.8456 44.801 29.4933 45.377 29.2482C45.953 28.9969 46.6025 28.8713 47.3256 28.8713C48.0302 28.8713 48.6552 28.9877 49.2006 29.2206C49.7459 29.4534 50.2024 29.7843 50.57 30.2132C50.9438 30.6422 51.2257 31.1569 51.4156 31.7574C51.6056 32.3517 51.7006 33.0135 51.7006 33.7426V34.8456H43.7961V33.0809H49.0995V32.8787C49.0995 32.511 49.0321 32.1832 48.8973 31.8952C48.7686 31.6011 48.5725 31.3683 48.309 31.1967C48.0455 31.0251 47.7085 30.9393 47.298 30.9393C46.9487 30.9393 46.6485 31.0159 46.3973 31.1691C46.146 31.3223 45.9408 31.5368 45.7814 31.8125C45.6283 32.0882 45.5118 32.413 45.4322 32.7868C45.3586 33.1544 45.3219 33.5588 45.3219 34V34.3676C45.3219 34.7659 45.377 35.1336 45.4873 35.4706C45.6037 35.8076 45.7661 36.0987 45.9745 36.3437C46.1889 36.5888 46.4463 36.7788 46.7465 36.9136C47.0529 37.0484 47.3991 37.1158 47.7851 37.1158C48.2631 37.1158 48.7073 37.0239 49.1178 36.8401C49.5345 36.6501 49.893 36.3652 50.1932 35.9853L51.48 37.3824C51.2716 37.6826 50.9867 37.9706 50.6252 38.2463C50.2698 38.5221 49.8409 38.7488 49.3384 38.9265C48.836 39.098 48.2631 39.1838 47.6197 39.1838ZM57.3164 37.1158C57.6411 37.1158 57.9291 37.0545 58.1803 36.932C58.4316 36.8033 58.6276 36.6256 58.7686 36.3989C58.9156 36.1661 58.9922 35.8934 58.9984 35.5809H61.4892C61.483 36.2794 61.2961 36.9013 60.9285 37.4467C60.5609 37.9859 60.0676 38.4118 59.4487 38.7243C58.8298 39.0306 58.1374 39.1838 57.3715 39.1838C56.5995 39.1838 55.9254 39.0551 55.3495 38.7978C54.7796 38.5404 54.3047 38.185 53.9248 37.7316C53.5449 37.2721 53.26 36.739 53.07 36.1324C52.8801 35.5196 52.7851 34.864 52.7851 34.1654V33.8989C52.7851 33.1942 52.8801 32.5386 53.07 31.932C53.26 31.3192 53.5449 30.7862 53.9248 30.3327C54.3047 29.8732 54.7796 29.5147 55.3495 29.2574C55.9193 29 56.5872 28.8713 57.3531 28.8713C58.1681 28.8713 58.8819 29.0276 59.4947 29.3401C60.1136 29.6526 60.5976 30.0999 60.9469 30.682C61.3023 31.258 61.483 31.9412 61.4892 32.7316H58.9984C58.9922 32.4007 58.9218 32.1005 58.787 31.8309C58.6583 31.5613 58.4683 31.3468 58.2171 31.1875C57.972 31.0221 57.6687 30.9393 57.3072 30.9393C56.9211 30.9393 56.6056 31.0221 56.3605 31.1875C56.1154 31.3468 55.9254 31.5674 55.7906 31.8493C55.6558 32.125 55.5609 32.4406 55.5057 32.796C55.4567 33.1452 55.4322 33.5129 55.4322 33.8989V34.1654C55.4322 34.5515 55.4567 34.9222 55.5057 35.2776C55.5547 35.633 55.6466 35.9485 55.7814 36.2243C55.9224 36.5 56.1154 36.7175 56.3605 36.8768C56.6056 37.0362 56.9242 37.1158 57.3164 37.1158ZM65.6068 24.8824V39H62.9597V24.8824H65.6068ZM65.23 33.6783H64.5039C64.51 32.9859 64.6019 32.3487 64.7796 31.7665C64.9573 31.1783 65.2116 30.6697 65.5425 30.2408C65.8734 29.8058 66.2686 29.4687 66.7281 29.2298C67.1938 28.9908 67.7085 28.8713 68.2722 28.8713C68.7624 28.8713 69.2067 28.9418 69.605 29.0827C70.0094 29.2175 70.3556 29.4381 70.6436 29.7445C70.9377 30.0447 71.1644 30.44 71.3237 30.9301C71.483 31.4203 71.5627 32.0147 71.5627 32.7132V39H68.8972V32.6949C68.8972 32.2537 68.8329 31.9075 68.7042 31.6562C68.5817 31.3989 68.4009 31.2181 68.162 31.114C67.9291 31.0037 67.6411 30.9485 67.298 30.9485C66.9181 30.9485 66.5933 31.019 66.3237 31.1599C66.0602 31.3009 65.8488 31.4969 65.6895 31.7482C65.5302 31.9933 65.4138 32.2812 65.3403 32.6121C65.2667 32.943 65.23 33.2984 65.23 33.6783ZM83.9156 25.6176V39H81.1675V25.6176H83.9156ZM88.0333 25.6176V27.7776H77.1142V25.6176H88.0333ZM93.1528 39.1838C92.3807 39.1838 91.6883 39.0613 91.0756 38.8162C90.4628 38.565 89.942 38.2187 89.5131 37.7776C89.0903 37.3364 88.7655 36.8248 88.5388 36.2426C88.3121 35.6544 88.1987 35.0294 88.1987 34.3676V34C88.1987 33.2463 88.306 32.557 88.5204 31.932C88.7349 31.307 89.0412 30.7647 89.4395 30.3051C89.8439 29.8456 90.3341 29.4933 90.9101 29.2482C91.4861 28.9969 92.1356 28.8713 92.8586 28.8713C93.5633 28.8713 94.1883 28.9877 94.7336 29.2206C95.279 29.4534 95.7355 29.7843 96.1031 30.2132C96.4769 30.6422 96.7588 31.1569 96.9487 31.7574C97.1387 32.3517 97.2336 33.0135 97.2336 33.7426V34.8456H89.3292V33.0809H94.6325V32.8787C94.6325 32.511 94.5651 32.1832 94.4303 31.8952C94.3017 31.6011 94.1056 31.3683 93.8421 31.1967C93.5786 31.0251 93.2416 30.9393 92.8311 30.9393C92.4818 30.9393 92.1816 31.0159 91.9303 31.1691C91.6791 31.3223 91.4738 31.5368 91.3145 31.8125C91.1613 32.0882 91.0449 32.413 90.9653 32.7868C90.8917 33.1544 90.855 33.5588 90.855 34V34.3676C90.855 34.7659 90.9101 35.1336 91.0204 35.4706C91.1368 35.8076 91.2992 36.0987 91.5075 36.3437C91.722 36.5888 91.9794 36.7788 92.2796 36.9136C92.586 37.0484 92.9322 37.1158 93.3182 37.1158C93.7961 37.1158 94.2404 37.0239 94.6509 36.8401C95.0676 36.6501 95.426 36.3652 95.7263 35.9853L97.0131 37.3824C96.8047 37.6826 96.5198 37.9706 96.1583 38.2463C95.8029 38.5221 95.374 38.7488 94.8715 38.9265C94.3691 39.098 93.7961 39.1838 93.1528 39.1838ZM104.109 36.7574V32.3272C104.109 32.0086 104.057 31.7359 103.952 31.5092C103.848 31.2763 103.686 31.0956 103.465 30.9669C103.251 30.8382 102.972 30.7739 102.629 30.7739C102.335 30.7739 102.08 30.826 101.866 30.9301C101.652 31.0282 101.486 31.1722 101.37 31.3621C101.253 31.546 101.195 31.7635 101.195 32.0147H98.548C98.548 31.5919 98.646 31.1906 98.8421 30.8107C99.0382 30.4308 99.3231 30.0968 99.6969 29.8088C100.071 29.5147 100.515 29.2849 101.03 29.1195C101.55 28.954 102.133 28.8713 102.776 28.8713C103.548 28.8713 104.234 29 104.835 29.2574C105.435 29.5147 105.907 29.9007 106.25 30.4154C106.599 30.9301 106.774 31.5735 106.774 32.3456V36.6011C106.774 37.1464 106.808 37.5937 106.875 37.943C106.943 38.2862 107.041 38.5864 107.169 38.8437V39H104.495C104.366 38.7304 104.268 38.3934 104.201 37.989C104.139 37.5784 104.109 37.1679 104.109 36.7574ZM104.458 32.943L104.476 34.4412H102.997C102.647 34.4412 102.344 34.481 102.087 34.5607C101.829 34.6403 101.618 34.7537 101.452 34.9007C101.287 35.0417 101.164 35.2071 101.085 35.3971C101.011 35.587 100.974 35.7953 100.974 36.0221C100.974 36.2488 101.027 36.454 101.131 36.6379C101.235 36.8156 101.385 36.9565 101.581 37.0607C101.777 37.1587 102.007 37.2077 102.27 37.2077C102.669 37.2077 103.015 37.1281 103.309 36.9687C103.603 36.8094 103.83 36.6134 103.989 36.3805C104.155 36.1477 104.24 35.9271 104.247 35.7187L104.945 36.8401C104.847 37.0913 104.712 37.3517 104.541 37.6213C104.375 37.8909 104.164 38.1452 103.906 38.3842C103.649 38.617 103.34 38.81 102.978 38.9632C102.617 39.1103 102.188 39.1838 101.691 39.1838C101.06 39.1838 100.487 39.0582 99.9726 38.807C99.464 38.5496 99.0596 38.1973 98.7594 37.75C98.4653 37.2966 98.3182 36.7819 98.3182 36.2059C98.3182 35.685 98.4163 35.2224 98.6123 34.818C98.8084 34.4136 99.0964 34.0735 99.4763 33.7978C99.8623 33.5159 100.343 33.3045 100.919 33.1636C101.495 33.0165 102.163 32.943 102.923 32.943H104.458ZM111.462 31.114V39H108.805V29.0551H111.296L111.462 31.114ZM111.094 33.6783H110.359C110.359 32.9859 110.441 32.3487 110.607 31.7665C110.778 31.1783 111.027 30.6697 111.351 30.2408C111.682 29.8058 112.09 29.4687 112.574 29.2298C113.058 28.9908 113.618 28.8713 114.256 28.8713C114.697 28.8713 115.101 28.9387 115.469 29.0735C115.837 29.2022 116.152 29.4075 116.416 29.6893C116.685 29.9651 116.894 30.3266 117.041 30.7739C117.188 31.2151 117.261 31.7451 117.261 32.364V39H114.614V32.6581C114.614 32.2047 114.553 31.8554 114.43 31.6103C114.308 31.3652 114.133 31.1936 113.906 31.0956C113.686 30.9975 113.419 30.9485 113.107 30.9485C112.764 30.9485 112.463 31.019 112.206 31.1599C111.955 31.3009 111.747 31.4969 111.581 31.7482C111.416 31.9933 111.293 32.2812 111.213 32.6121C111.134 32.943 111.094 33.2984 111.094 33.6783ZM117.013 33.375L116.066 33.4945C116.066 32.845 116.146 32.2414 116.305 31.6838C116.471 31.1262 116.713 30.636 117.031 30.2132C117.356 29.7904 117.758 29.4626 118.235 29.2298C118.713 28.9908 119.265 28.8713 119.89 28.8713C120.368 28.8713 120.803 28.9418 121.195 29.0827C121.587 29.2175 121.921 29.435 122.197 29.7353C122.479 30.0294 122.693 30.4154 122.84 30.8934C122.993 31.3713 123.07 31.9565 123.07 32.6489V39H120.414V32.6489C120.414 32.1893 120.353 31.8401 120.23 31.6011C120.114 31.356 119.942 31.1875 119.715 31.0956C119.495 30.9975 119.231 30.9485 118.925 30.9485C118.606 30.9485 118.327 31.0129 118.088 31.1415C117.849 31.2641 117.65 31.4357 117.491 31.6562C117.332 31.8768 117.212 32.1342 117.133 32.4283C117.053 32.7163 117.013 33.0319 117.013 33.375Z" fill="black"/>
</svg>
